<?xml version="1.0" standalone="no"?><!DOCTYPE svg PUBLIC "-//W3C//DTD SVG 1.1//EN" "http://www.w3.org/Graphics/SVG/1.1/DTD/svg11.dtd"><svg class="icon" width="200px" height="200.00px" viewBox="0 0 1024 1024" version="1.1" xmlns="http://www.w3.org/2000/svg"><path d="M691.2 412.16c-17.408 0-31.232-13.824-31.232-31.232 0-17.408 13.824-31.232 31.232-31.232 17.408 0 31.232 13.824 31.232 31.232 0 17.408-13.824 31.232-31.232 31.232z" fill="#f68282" /><path d="M549.888 731.648H129.536c-14.848 0-27.136-12.288-27.136-27.136s12.288-27.136 27.136-27.136h420.352c14.848 0 27.136 12.288 27.136 27.136s-12.288 27.136-27.136 27.136z" fill="#e3eeff" /><path d="M538.112 827.392H532.48c-39.424 0-71.168-21.504-71.168-47.616 0-26.624 31.744-47.616 71.168-47.616h5.632v-53.76H168.96V732.16h134.656c39.424 0 71.168 21.504 71.168 47.616 0 26.624-31.744 47.616-71.168 47.616H168.96v53.76h369.152v-53.76z" fill="#e3eeff" /><path d="M560.128 595.968c0-9.728-11.776-17.92-26.112-17.92H269.824c-14.848 0-26.624 8.192-26.624 17.92s11.776 17.92 26.624 17.92h107.52c26.112 0 47.616 14.336 47.616 31.744 0 17.408-20.992 31.744-47.616 31.744H287.744v35.84h246.272v-35.84h-4.096c-26.112 0-47.616-14.336-47.616-31.744 0-17.408 20.992-31.744 47.616-31.744h4.096c14.848-0.512 26.112-8.192 26.112-17.92zM708.096 827.392H142.336c-22.016 0-39.936 12.288-39.936 27.136s17.92 27.136 39.936 27.136h565.76v-54.272zM722.432 827.392h33.792v53.76h-33.792zM797.696 827.392h22.016v53.76h-22.016zM881.664 827.392h-50.688v53.76h50.688c22.016 0 39.936-12.288 39.936-27.136s-17.92-26.624-39.936-26.624z" fill="#e3eeff" /><path d="M649.728 142.848c0 15.872-10.752 29.184-24.576 29.184 13.312 0 24.576 12.8 24.576 29.184 0-15.872 10.752-29.184 24.576-29.184-13.312-0.512-24.576-13.312-24.576-29.184z" fill="#76a6ef" /><path d="M248.32 322.048c-6.144 0-12.288-2.048-16.896-6.144-5.12-4.608-8.704-10.752-9.216-17.92-1.024-14.336 9.216-27.136 24.064-28.16 7.168-0.512 13.824 1.536 18.944 6.144 5.12 4.608 8.704 10.752 9.216 17.92 0.512 7.168-1.536 13.824-6.144 18.944-4.608 5.12-10.752 8.704-17.92 9.216h-2.048z m0-46.08h-1.536c-10.752 1.024-18.944 10.752-17.92 21.504 1.024 10.752 10.752 18.944 21.504 17.92 5.12-0.512 10.24-3.072 13.312-7.168 3.584-4.096 5.12-9.216 4.608-14.336-1.024-9.728-9.728-17.92-19.968-17.92zM557.568 394.24c-4.096 0-8.192-1.536-11.776-4.096-3.584-3.072-6.144-7.68-6.656-12.288-0.512-4.608 1.024-9.728 4.096-13.312 3.072-3.584 7.68-6.144 12.288-6.656 4.608-0.512 9.728 1.024 13.312 4.096s6.144 7.68 6.656 12.288c1.024 10.24-6.656 18.944-16.384 19.456-0.512 0.512-1.024 0.512-1.536 0.512z m0-30.208h-1.024c-3.072 0.512-6.144 1.536-7.68 4.096-2.048 2.56-3.072 5.632-2.56 8.704 0.512 3.072 1.536 6.144 4.096 7.68 2.56 2.048 5.632 3.072 8.704 2.56 6.144-0.512 11.264-6.144 10.752-12.8-0.512-3.072-1.536-6.144-4.096-7.68-3.072-1.536-5.632-2.56-8.192-2.56z" fill="#82a0f6" /><path d="M419.84 284.16c-2.048 0-3.072-1.536-3.072-3.072V261.12l-14.336 14.336c-1.024 1.024-3.584 1.024-4.608 0-1.024-1.024-1.024-3.584 0-4.608l14.336-14.336h-19.968c-2.048 0-3.072-1.536-3.072-3.072 0-2.048 1.536-3.072 3.072-3.072h19.968L397.824 235.52c-1.024-1.024-1.024-3.584 0-4.608 1.024-1.024 3.584-1.024 4.608 0l14.336 14.336V225.28c0-2.048 1.536-3.072 3.072-3.072 2.048 0 3.072 1.536 3.072 3.072v19.968l14.336-14.336c1.024-1.024 3.584-1.024 4.608 0 1.024 1.024 1.024 3.584 0 4.608l-14.336 14.336h19.968c2.048 0 3.072 1.536 3.072 3.072 0 2.048-1.536 3.072-3.072 3.072h-19.968l14.336 14.336c1.024 1.024 1.024 3.584 0 4.608-1.024 1.024-3.584 1.024-4.608 0L423.424 261.12v19.968c0 1.536-1.536 3.072-3.584 3.072z" fill="#82a0f6" /><path d="M486.4 421.376c-1.536 0-2.56-1.024-2.56-2.56v-14.848l-10.24 10.24c-1.024 1.024-2.56 1.024-3.584 0s-1.024-2.56 0-3.584l10.24-10.752H465.92c-1.536 0-2.56-1.024-2.56-2.56s1.024-2.56 2.56-2.56h14.848l-10.24-10.24c-1.024-1.024-1.024-2.56 0-3.584s2.56-1.024 3.584 0l10.24 10.24v-14.848c0-1.536 1.024-2.56 2.56-2.56s2.56 1.024 2.56 2.56v14.848l10.24-10.24c1.024-1.024 2.56-1.024 3.584 0 1.024 1.024 1.024 2.56 0 3.584l-10.24 10.24h14.848c1.536 0 2.56 1.024 2.56 2.56s-1.024 2.56-2.56 2.56h-14.848l10.24 10.752c1.024 1.024 1.024 2.56 0 3.584-1.024 1.024-2.56 1.024-3.584 0l-10.24-10.24v14.848c-0.512 1.024-1.536 2.56-3.072 2.56z" fill="#82a0f6" /><path d="M252.928 181.248H225.28c-2.048 0-3.072-1.536-3.072-3.072 0-2.048 1.536-3.072 3.072-3.072h27.136c2.048 0 3.072 1.536 3.072 3.072 0.512 1.536-1.024 3.072-2.56 3.072z" fill="#2b77ef" /><path d="M239.104 194.56c-2.048 0-3.072-1.536-3.072-3.072v-27.136c0-2.048 1.536-3.072 3.072-3.072 2.048 0 3.072 1.536 3.072 3.072v27.136c0 1.536-1.536 3.072-3.072 3.072zM867.328 601.088h-27.136c-2.048 0-3.072-1.536-3.072-3.072 0-2.048 1.536-3.072 3.072-3.072h27.136c2.048 0 3.072 1.536 3.072 3.072 0.512 1.536-1.024 3.072-3.072 3.072z" fill="#2b77ef" /><path d="M854.016 614.912c-2.048 0-3.072-1.536-3.072-3.072v-27.136c0-2.048 1.536-3.072 3.072-3.072 2.048 0 3.072 1.536 3.072 3.072v27.136c0 1.536-1.536 3.072-3.072 3.072z" fill="#2b77ef" /><path d="M150.016 440.832c0 15.872-10.752 29.184-24.576 29.184 13.312 0 24.576 12.8 24.576 29.184 0-15.872 10.752-29.184 24.576-29.184-13.824-0.512-24.576-13.312-24.576-29.184z" fill="#76a6ef" /><path d="M141.312 753.152c-8.192 0-14.848-6.656-14.848-14.848 0-8.192 6.656-14.848 14.848-14.848 8.192 0 14.848 6.656 14.848 14.848 0 8.192-6.656 14.848-14.848 14.848z m0-23.04c-4.608 0-8.192 3.584-8.192 8.192 0 4.608 3.584 8.192 8.192 8.192 4.608 0 8.192-3.584 8.192-8.192 0-4.608-3.584-8.192-8.192-8.192zM854.016 753.152c-8.192 0-14.848-6.656-14.848-14.848 0-8.192 6.656-14.848 14.848-14.848 8.192 0 14.848 6.656 14.848 14.848 0 8.192-6.656 14.848-14.848 14.848z m0-23.04c-4.608 0-8.192 3.584-8.192 8.192 0 4.608 3.584 8.192 8.192 8.192 4.608 0 8.192-3.584 8.192-8.192 0-4.608-3.584-8.192-8.192-8.192zM805.888 507.904c-11.264 0-19.968-9.216-19.968-19.968 0-11.264 9.216-19.968 19.968-19.968 11.264 0 19.968 9.216 19.968 19.968 0 11.264-9.216 19.968-19.968 19.968z m0-33.28c-7.68 0-13.312 6.144-13.312 13.312s6.144 13.312 13.312 13.312c7.68 0 13.312-6.144 13.312-13.312s-6.144-13.312-13.312-13.312z" fill="#82a0f6" /><path d="M385.536 428.544V558.08c-10.24 2.048-18.944 0-26.112-20.992-10.24-30.208-61.44-65.024-95.232-85.504l112.128-30.208c4.608-1.024 9.216 2.56 9.216 7.168z" fill="#ffffff" /><path d="M380.416 565.248c-12.288 0-20.48-8.192-26.624-26.112-7.68-21.504-40.448-50.688-92.672-81.92-2.048-1.536-3.584-4.096-3.072-6.656s2.048-4.608 4.608-5.632L374.784 414.72c4.096-1.024 8.704-0.512 12.288 2.56 3.584 2.56 5.632 6.656 5.632 11.264V558.08c0 3.072-2.048 5.632-5.12 6.656-3.072 0-5.12 0.512-7.168 0.512zM280.576 454.144c35.84 22.528 75.264 52.736 84.992 80.896 4.608 13.312 9.216 16.896 13.312 17.408V428.544c0-0.512 0-0.512-0.512-0.512h-1.024l-96.768 26.112z" fill="#2b77ef" /><path d="M775.68 434.688v318.976c-90.112-11.776-176.128-166.4-184.32-174.08-1.024-1.024-2.56-1.536-4.096-1.024V484.864c0-3.072 2.048-6.144 5.632-7.168l50.176-14.336 48.128 81.92L758.784 430.08l7.68-2.048c4.608-1.536 9.216 2.048 9.216 6.656z" fill="#ffffff" /><path d="M775.68 760.32h-1.024c-78.336-10.24-151.04-120.832-178.688-162.304-3.584-5.12-7.168-10.752-8.704-12.8-1.536 0-3.072-0.512-4.608-2.048-1.536-1.024-2.048-3.072-2.048-4.608V484.864c0-6.144 4.096-11.776 10.24-13.312l50.176-14.336c3.072-1.024 6.144 0.512 7.68 3.072L691.2 532.48l61.952-105.472c1.024-1.536 2.048-2.56 3.584-3.072l7.68-2.048c4.096-1.024 8.704-0.512 12.288 2.048s5.632 6.656 5.632 11.264v318.976c0 2.048-1.024 3.584-2.048 5.12-1.536 0.512-3.072 1.024-4.608 1.024z m-181.248-186.368c0.512 0.512 1.536 1.024 2.048 1.536 2.048 1.536 4.096 5.12 11.264 15.872 25.6 38.912 92.16 139.776 161.792 155.136V434.688c0-0.512 0-0.512-0.512-0.512h-1.024l-5.12 1.536-66.048 113.152c-2.56 4.096-8.704 4.096-11.264 0L640 470.528l-45.056 12.8c-0.512 0-0.512 0.512-0.512 1.024v89.6z" fill="#2b77ef" /><path d="M587.776 484.352V578.56c-14.848 0.512-53.76 35.328-76.8 37.376-26.112 2.048-43.008-39.936-77.824-58.88-19.456-10.24-34.304-1.536-47.104 1.024V429.056c0-5.12 4.608-8.704 9.728-7.168l187.392 55.808c2.56 0.512 4.608 3.584 4.608 6.656z" fill="#ffffff" /><path d="M508.928 622.592c-16.384 0-29.184-13.824-43.008-28.16-10.24-11.264-22.016-23.552-36.352-31.744-12.8-7.168-23.552-3.584-33.792-0.512-3.072 1.024-6.144 1.536-8.704 2.56-2.048 0.512-4.096 0-5.632-1.536-1.536-1.024-2.56-3.072-2.56-5.12V429.056c0-4.608 2.048-8.704 5.632-11.264 3.584-2.56 8.192-3.584 12.288-2.048L584.192 471.04c5.632 1.536 10.24 7.168 10.24 13.312V578.56c0 3.584-3.072 6.656-6.144 6.656-5.12 0-17.408 7.68-28.16 14.848-15.872 10.24-34.304 21.504-48.64 22.528h-2.56z m-95.232-76.8c6.656 0 14.336 1.536 22.016 5.632 16.384 8.704 28.672 22.528 39.936 34.304 12.288 13.312 23.552 25.088 34.816 24.064 11.264-1.024 28.16-11.264 43.008-20.48 12.288-7.68 20.992-13.312 28.16-15.36V484.352c0-0.512-0.512-0.512-0.512-1.024L393.216 428.032h-1.024l-0.512 0.512v120.32c6.656-1.024 13.824-3.072 22.016-3.072zM691.2 418.816c-20.992 0-37.888-16.896-37.888-37.888 0-20.992 16.896-37.888 37.888-37.888 20.992 0 37.888 16.896 37.888 37.888 0.512 20.992-16.896 37.888-37.888 37.888z m0-62.976c-13.824 0-25.088 11.264-25.088 25.088s11.264 25.088 25.088 25.088 25.088-11.264 25.088-25.088-11.264-25.088-25.088-25.088zM760.832 432.64c-1.024 0-2.56-0.512-3.584-1.024-3.072-2.048-4.096-5.632-2.048-8.704l4.096-7.168c1.536-3.072 5.632-4.096 8.704-2.56 3.072 1.536 4.096 5.632 2.56 8.704-1.536 2.56-2.56 5.12-4.608 7.68-1.024 2.048-3.072 3.072-5.12 3.072z m-139.264 0c-2.048 0-4.096-1.024-5.632-3.072-1.536-2.56-3.072-4.608-4.096-7.168-1.536-3.072-0.512-7.168 2.56-8.704 3.072-1.536 7.168-0.512 8.704 2.56l4.096 6.656c1.536 3.072 1.024 7.168-2.048 8.704-1.024 1.024-2.048 1.024-3.584 1.024z" fill="#2b77ef" /><path d="M690.688 297.984c-43.52 0.512-79.872 34.816-82.432 77.824-1.024 15.36 2.56 30.208 9.216 43.008 0 0 0 0.512 0.512 0.512l4.096 6.656 21.504 36.864 48.128 81.92L758.784 430.08l2.048-3.584 4.096-7.168v-0.512c6.144-11.264 9.216-24.064 9.216-37.888 0-46.08-37.376-83.456-83.456-82.944z m-4.608 51.712c21.504-3.584 39.936 14.848 36.352 36.352-2.048 13.312-12.8 23.552-25.6 25.6-21.504 3.584-39.936-14.848-36.352-36.352 2.048-12.8 12.288-23.04 25.6-25.6z" fill="#c7ddff" /><path d="M665.6 464.384l-21.504-36.864-4.096-6.656s0-0.512-0.512-0.512c-6.656-12.8-9.728-27.648-9.216-43.008 2.56-41.472 35.84-74.752 76.8-77.824-5.632-1.024-11.264-1.536-16.896-1.536-43.52 0.512-79.872 34.816-82.432 77.824-1.024 15.36 2.56 30.208 9.216 43.008 0 0 0 0.512 0.512 0.512l4.096 6.656 21.504 36.864 48.128 81.92 10.752-18.432-36.352-61.952z" fill="#ffffff" /><path d="M690.688 297.984c-4.096 0-7.68 0.512-11.264 1.024 40.448 5.632 71.168 40.448 71.168 81.92 0 13.824-3.072 26.624-9.216 37.888v0.512l-4.096 7.168-2.048 3.584-55.808 94.72 11.776 20.48L758.784 430.08l2.048-3.584 4.096-7.168v-0.512c6.144-11.264 9.216-24.064 9.216-37.888 0-46.08-37.376-83.456-83.456-82.944z" fill="#76a6ef" /><path d="M691.2 551.424c-2.56 0-4.608-1.024-5.632-3.072l-73.728-125.44c0-0.512-0.512-0.512-0.512-1.024-7.168-14.336-10.752-30.208-9.728-46.592 2.56-47.104 41.984-83.968 89.088-83.968h0.512c24.064 0 46.08 9.216 62.976 26.112 16.896 16.896 26.624 39.424 26.624 63.488 0 14.336-3.584 28.16-9.728 40.96 0 0.512-0.512 0.512-0.512 1.024l-73.728 125.44c-1.024 2.048-3.072 3.072-5.632 3.072z m-67.584-135.168l25.6 43.52 42.496 72.192 68.096-115.712v-0.512c5.632-10.752 8.704-22.528 8.704-34.816 0-20.48-8.192-39.936-22.528-54.272-14.336-14.336-33.792-22.016-53.76-22.016h-0.512c-40.448 0-73.728 31.744-75.776 71.68-1.536 13.824 1.024 27.648 7.68 39.936-0.512 0 0 0 0 0z m67.584 2.56c-10.24 0-19.456-4.096-26.624-11.264-8.704-8.704-12.8-20.992-10.752-33.28 2.56-15.872 15.36-28.672 31.232-31.232 12.288-2.048 24.576 2.048 33.28 10.752s12.8 20.992 10.752 33.28c-2.56 15.872-15.36 28.672-31.232 31.232-2.048 0.512-4.608 0.512-6.656 0.512z m0-62.976c-1.536 0-3.072 0-4.096 0.512-10.24 1.536-18.432 10.24-20.48 20.48-1.536 8.192 1.024 16.384 7.168 22.016 5.632 5.632 13.824 8.192 22.016 7.168 10.24-1.536 18.432-10.24 20.48-20.48 1.536-8.192-1.024-16.384-7.168-22.016-4.608-5.12-11.264-7.68-17.92-7.68z" fill="#2b77ef" /><path d="M617.472 425.984c-1.536 0-3.584-0.512-4.608-2.048 0 0-0.512-0.512-0.512-1.024v-0.512c-0.512-0.512-0.512-1.024-0.512-1.536-0.512-1.536-0.512-3.584 0.512-5.12 1.024-2.048 3.072-3.584 5.632-3.584 2.56 0 5.12 2.048 6.144 4.608 1.024 2.56 0 6.144-2.048 7.68-2.048 1.024-3.072 1.536-4.608 1.536zM764.928 425.984c-1.024 0-2.048-0.512-3.072-1.024-3.072-1.536-4.096-5.632-2.56-8.704 1.024-2.56 3.584-4.096 6.144-4.096s4.608 1.024 5.632 3.072c1.024 2.048 1.024 4.608 0 6.656-1.536 3.072-4.096 4.096-6.144 4.096z" fill="#2b77ef" /><path d="M385.536 558.08v205.824c0 3.072-2.048 6.144-5.12 7.168l-167.936 55.296c-4.608 1.536-9.728-2.048-9.728-7.168l-5.12-343.552c0-3.584 2.048-6.144 5.632-7.168l60.928-16.384C297.472 472.064 349.184 506.88 359.424 537.6c7.68 20.48 15.872 22.528 26.112 20.48z" fill="#c7ddff" /><path d="M359.936 537.088C349.184 506.88 297.984 472.064 264.192 451.584l-22.016 6.144c33.28 20.48 80.384 53.248 90.112 81.92 7.168 20.992 15.872 23.04 26.112 20.992v205.824c0 3.072-2.048 6.144-5.12 7.168l-149.504 49.152c1.536 3.072 5.12 4.608 8.704 3.072l167.936-55.296c3.072-1.024 5.12-4.096 5.12-7.168V558.08c-10.24 2.048-18.432 0-25.6-20.992z" fill="#76a6ef" /><path d="M235.52 479.232c0-3.584-0.512-8.192 3.072-10.752l15.872-8.704c-4.096-3.072-0.512-1.536-4.096-4.096l-48.128 16.384c-2.56 1.024-4.608 4.096-4.096 7.168l4.096 343.552c0 5.12 4.096 8.704 7.68 7.168l30.208-12.288-4.608-338.432z" fill="#ffffff" /><path d="M210.432 833.024c-3.072 0-5.632-1.024-8.192-2.56-3.584-2.56-5.632-6.656-5.632-11.264l-5.12-343.552c0-6.144 4.096-12.288 10.24-13.824L262.656 445.44c1.536-0.512 3.584 0 5.12 0.512 38.912 23.04 87.04 57.344 98.304 88.576 6.656 18.944 12.8 17.92 18.432 16.896 2.048-0.512 4.096 0 5.632 1.536 1.536 1.024 2.56 3.072 2.56 5.12v205.824c0 6.144-4.096 11.264-9.728 13.312L215.04 832.512c-2.048 0-3.584 0.512-4.608 0.512z m52.736-374.272L204.8 474.624c-0.512 0-0.512 0.512-0.512 1.024l5.12 343.552c0 0.512 0 0.512 0.512 0.512h1.024L378.88 764.416c0.512 0 0.512-0.512 0.512-1.024v-198.656c-11.776-0.512-19.456-8.704-25.6-26.112-7.68-20.48-39.424-49.152-90.624-79.872z" fill="#2b77ef" /><path d="M587.776 579.072V819.2c0 5.12-4.608 8.704-9.728 7.168l-187.392-55.808c-3.072-1.024-5.12-3.584-5.12-7.168V558.08c12.288-2.56 27.648-11.264 47.104-1.024 34.816 18.944 52.224 60.928 77.824 58.88 23.552-1.536 62.464-36.864 77.312-36.864z" fill="#c7ddff" /><path d="M560.128 591.872V820.736l17.92 5.632c4.608 1.536 9.728-2.048 9.728-7.168v-240.128c-6.144 0-15.872 6.144-27.648 12.8z" fill="#76a6ef" /><path d="M431.104 777.216c-3.072-1.024-5.12-3.584-5.12-7.168v-205.824c4.096-1.024 8.704-2.56 13.312-3.584-2.048-1.536-4.096-2.56-6.144-3.584-19.456-10.24-34.304-1.536-47.104 1.024v205.824c0 3.072 2.048 6.144 5.12 7.168l187.392 55.808c3.072 1.024 6.656-0.512 8.192-3.072l-155.648-46.592z" fill="#ffffff" /><path d="M775.68 754.176v2.048c0 3.072-2.048 6.144-5.12 7.168l-173.056 62.464c-4.608 1.536-9.728-2.048-9.728-7.168v-239.616c1.536 0 3.072 0.512 4.096 1.024 8.192 7.168 93.696 162.304 183.808 174.08z" fill="#c7ddff" /><path d="M620.544 622.592c-15.872-22.528-26.112-39.936-28.672-42.496-1.024-1.024-2.56-1.536-4.096-1.024v239.616c0 5.12 5.12 8.704 9.728 7.168l23.04-8.192v-195.072z" fill="#ffffff" /><path d="M591.872 580.096c-1.024-1.024-2.56-1.536-4.096-1.024v56.832c29.696 44.032 87.04 121.856 148.48 140.288l34.816-12.288c3.072-1.024 5.12-4.096 5.12-7.168v-2.048c-90.624-12.288-176.128-167.424-184.32-174.592z" fill="#76a6ef" /><path d="M580.608 833.024c-1.536 0-2.56 0-4.096-0.512L389.12 777.216c-5.632-1.536-10.24-7.168-10.24-13.312V558.08c0-3.072 2.048-5.632 5.12-6.656 2.56-0.512 5.12-1.024 7.68-2.048 11.264-3.072 26.112-7.68 43.52 2.048 16.384 8.704 28.672 22.528 39.936 34.304 12.288 13.312 23.552 25.088 34.816 24.064 11.264-1.024 28.16-11.264 43.008-20.48 16.384-10.24 26.624-16.384 34.816-16.384 2.048 0 3.584 0.512 4.608 2.048 1.024 1.024 2.048 3.072 2.048 4.608V819.2c0 4.608-2.048 8.704-5.632 11.264-2.56 2.048-5.632 2.56-8.192 2.56zM392.192 563.2v200.704c0 0.512 0.512 0.512 0.512 1.024l187.392 55.808h1.024l0.512-0.512V588.8c-6.144 2.56-13.824 7.68-21.504 12.288-15.872 10.24-34.304 21.504-48.64 22.528-17.92 1.536-31.232-12.8-45.056-28.16-10.24-11.264-22.016-23.552-36.352-31.744-12.8-7.168-23.552-3.584-33.792-0.512-1.536-0.512-3.072-0.512-4.096 0z" fill="#2b77ef" /><path d="M595.456 832.512c-3.072 0-5.632-1.024-8.192-2.56-3.584-2.56-6.144-6.656-6.144-11.264v-239.616c0-3.584 2.56-6.144 6.144-6.656 4.096 0 7.168 1.536 8.704 3.072 2.048 1.536 4.096 5.12 11.264 15.872 26.624 40.448 97.28 146.944 169.472 156.672 3.072 0.512 5.632 3.072 5.632 6.656v2.048c0 5.632-3.584 11.264-9.216 13.312l-173.056 62.464h-4.608z m-1.024-237.568v223.744c0 0.512 0 0.512 0.512 0.512h1.024l168.96-60.928c-74.24-17.92-141.824-120.32-167.936-160.256-1.024-1.024-2.048-2.048-2.56-3.072z" fill="#2b77ef" /><path d="M717.824 601.088c0 20.992 14.336 37.888 31.744 37.888-17.408 0-31.744 16.896-31.744 37.888 0-20.992-14.336-37.888-31.744-37.888 17.92 0 31.744-16.896 31.744-37.888z" fill="#76a6ef" /></svg>